<?xml version="1.0" standalone="yes"?>
<svg xmlns="http://www.w3.org/2000/svg" width="178" height="168">
<path style="fill:#ffffff; stroke:none;" d="M0 0L0 168L178 168L178 0L0 0z"/>
<path style="fill:#010101; stroke:none;" d="M61 37L61 116L46 116L46 97L32 97L32 116C32.0015 119.241 31.5394 123.091 33.6034 125.852C35.908 128.935 39.5013 128.975 43 128.999C50.3173 129.05 57.6863 129.214 65 128.985C68.4998 128.875 72.095 128.226 73.9722 124.891C77.3347 118.918 75 106.732 75 100L75 37L61 37M106 37L106 50L121 50L121 129L135 129L135 50L150 50L150 37L106 37z"/>
</svg>
